<?xml version="1.0" encoding="UTF-8" standalone="no"?>
<svg
   xmlns:dc="http://purl.org/dc/elements/1.1/"
   xmlns:cc="http://creativecommons.org/ns#"
   xmlns:rdf="http://www.w3.org/1999/02/22-rdf-syntax-ns#"
   xmlns:svg="http://www.w3.org/2000/svg"
   xmlns="http://www.w3.org/2000/svg"
   xmlns:sodipodi="http://sodipodi.sourceforge.net/DTD/sodipodi-0.dtd"
   xmlns:inkscape="http://www.inkscape.org/namespaces/inkscape"
   width="286px"
   height="90px"
   viewBox="0 0 286 90"
   version="1.1"
   id="svg13"
   sodipodi:docname="gitee_icon.svg"
   inkscape:export-filename="C:\Users\admin\Desktop\222.png"
   inkscape:export-xdpi="90"
   inkscape:export-ydpi="90"
   inkscape:version="1.0.2 (e86c870879, 2021-01-15, custom)">
  <metadata
     id="metadata19">
    <rdf:RDF>
      <cc:Work
         rdf:about="">
        <dc:format>image/svg+xml</dc:format>
        <dc:type
           rdf:resource="http://purl.org/dc/dcmitype/StillImage" />
        <dc:title>logo-black</dc:title>
      </cc:Work>
    </rdf:RDF>
  </metadata>
  <defs
     id="defs17" />
  <sodipodi:namedview
     pagecolor="#000000"
     bordercolor="#666666"
     borderopacity="1"
     objecttolerance="10"
     gridtolerance="10"
     guidetolerance="10"
     inkscape:pageopacity="0"
     inkscape:pageshadow="2"
     inkscape:window-width="1920"
     inkscape:window-height="986"
     id="namedview15"
     showgrid="false"
     inkscape:zoom="2.3758741"
     inkscape:cx="189.71981"
     inkscape:cy="62.632265"
     inkscape:window-x="-11"
     inkscape:window-y="-11"
     inkscape:window-maximized="1"
     inkscape:current-layer="svg13" />
  <!-- Generator: Sketch 61.2 (89653) - https://sketch.com -->
  <title
     id="title2">logo-black</title>
  <desc
     id="desc4">Created with Sketch.</desc>
  <g
     id="Group"
     style="fill:none;fill-rule:evenodd;stroke:none;stroke-width:1">
    <circle
       id="Combined-Shape"
       fill="#c71d23"
       cx="44.854435"
       cy="44.854435"
       r="44.854435" />
    <path
       d="M 67.558546,39.871429 H 42.085797 c -1.223097,5.8e-4 -2.214702,0.991926 -2.215602,2.215022 l -0.0015,5.537332 c -9.19e-4,1.223322 0.99052,2.215281 2.213843,2.215602 1.99e-4,0 3.99e-4,0 5.98e-4,-5.99e-4 l 15.507762,-1.29e-4 c 1.223323,-2.9e-5 2.21503,0.991662 2.21504,2.214985 0,6e-6 0,1.2e-5 -1.8e-5,1.8e-5 v 0.553694 0 0.553761 c 0,3.669968 -2.975097,6.645065 -6.645065,6.645065 H 32.116551 c -1.223148,-6.1e-5 -2.214714,-0.9916 -2.214809,-2.214747 l -5.79e-4,-21.042314 c -2.85e-4,-3.669968 2.97473,-6.645147 6.644698,-6.645248 6.1e-5,0 1.22e-4,0 1.83e-4,1.83e-4 h 31.00632 c 1.222786,-0.0014 2.214263,-0.992236 2.216395,-2.215022 l 0.0034,-5.537332 c 0.0021,-1.223322 -0.988952,-2.215636 -2.212274,-2.216395 -4.58e-4,0 -9.16e-4,0 -0.0014,0.0014 H 36.547968 c -9.174921,0 -16.612663,7.437743 -16.612663,16.612663 v 31.009205 c 0,1.223323 0.991699,2.215022 2.215022,2.215022 h 32.672171 c 8.257248,0 14.95107,-6.693822 14.95107,-14.95107 V 42.086451 c 0,-1.223323 -0.991699,-2.215022 -2.215022,-2.215022 z"
       id="G"
       fill="#ffffff" />
  </g>
  <path
     d="m 129.67995,79.411765 c 6.74212,0 12.12457,-1.3151 16.14737,-3.945298 4.0228,-2.630199 6.0342,-6.035969 6.0342,-10.21731 0,-6.744099 -5.03412,-10.116148 -15.10235,-10.116148 v 0 h -6.20274 c -2.06759,0 -3.55085,-0.202323 -4.4498,-0.606969 -0.89895,-0.404646 -1.34842,-1.079056 -1.34842,-2.02323 0,-0.944174 0.29215,-1.730985 0.87647,-2.360435 0.22474,-0.269764 0.5169,-0.359685 0.87648,-0.269764 1.43831,0.404646 2.80921,0.606969 4.11269,0.606969 4.62958,0 8.39393,-1.112776 11.29304,-3.338329 2.89911,-2.225552 4.34867,-5.518921 4.34867,-9.880104 0,-1.618584 -0.29216,-3.057325 -0.87648,-4.316224 -0.0449,-0.08992 -0.0337,-0.191083 0.0337,-0.303484 0.0674,-0.112402 0.16856,-0.168603 0.3034,-0.168603 v 0 h 1.55069 c 1.12368,0 2.06758,-0.382165 2.83168,-1.146497 0.76411,-0.764331 1.14616,-1.708505 1.14616,-2.832521 v 0 -0.944174 c 0,-1.079056 -0.38205,-2.011989 -1.14616,-2.798801 -0.7641,-0.786812 -1.708,-1.180217 -2.83168,-1.180217 v 0 h -9.91092 c -0.31463,0 -0.65173,-0.04496 -1.01131,-0.134882 -1.75295,-0.539528 -3.66322,-0.809292 -5.7308,-0.809292 -2.92159,0 -5.59596,0.505807 -8.02312,1.517422 -2.42716,1.011615 -4.43856,2.630199 -6.0342,4.855751 -1.59563,2.225553 -2.39345,4.866992 -2.39345,7.924317 0,2.11315 0.49442,4.046459 1.48327,5.799925 0.98884,1.753465 2.2249,3.169726 3.70816,4.248782 0.0899,0.04496 0.13484,0.112402 0.13484,0.202323 0,0.08992 -0.0449,0.179843 -0.13484,0.269764 -1.25853,0.899213 -2.26984,1.989509 -3.03395,3.270888 -0.76411,1.281379 -1.14616,2.596478 -1.14616,3.945298 0,2.877482 1.14616,5.103034 3.43848,6.676658 0.0899,0.04496 0.13484,0.123641 0.13484,0.236043 0,0.112402 -0.045,0.213563 -0.13484,0.303484 -1.7979,0.899214 -3.15756,2.00075 -4.07898,3.304609 -0.92142,1.303859 -1.38213,2.7426 -1.38213,4.316223 0,2.248033 0.7641,4.136381 2.29231,5.665043 1.52822,1.528663 3.49467,2.618959 5.89936,3.270888 2.40469,0.65193 5.18019,0.977895 8.32651,0.977895 z m 0.9439,-36.350693 c -1.48327,0 -2.68561,-0.528288 -3.60704,-1.584864 -0.92142,-1.056575 -1.38213,-2.573997 -1.38213,-4.552266 0,-1.933309 0.46071,-3.428251 1.38213,-4.484826 0.92143,-1.056576 2.12377,-1.584864 3.60704,-1.584864 1.48326,0 2.68561,0.517048 3.60703,1.551143 0.92142,1.034095 1.38213,2.540277 1.38213,4.518547 0,1.978269 -0.46071,3.495691 -1.38213,4.552266 -0.92142,1.056576 -2.12377,1.584864 -3.60703,1.584864 z m 0.94389,28.66242 c -2.562,0 -4.59587,-0.348445 -6.10161,-1.045335 -1.50574,-0.696891 -2.25861,-1.742226 -2.25861,-3.136006 0,-1.124017 0.51689,-2.180592 1.55069,-3.169727 0.13484,-0.134882 0.3371,-0.202323 0.60679,-0.202323 v 0 h 0.20226 c 1.12369,0.224803 2.83169,0.337205 5.12401,0.337205 v 0 h 3.70816 c 1.97769,0 3.42725,0.202323 4.34867,0.606969 0.92142,0.404646 1.38213,1.146497 1.38213,2.225553 0,1.258898 -0.79782,2.304233 -2.39345,3.136006 -1.59563,0.831772 -3.65198,1.247658 -6.16904,1.247658 z m 32.63185,-53.817909 c 2.02263,0 3.68569,-0.584489 4.98917,-1.753466 1.30347,-1.168977 1.95521,-2.675159 1.95521,-4.518546 0,-1.8433874 -0.65174,-3.3608097 -1.95521,-4.5522671 -1.30348,-1.1914575 -2.96654,-1.7871863 -4.98917,-1.7871863 -2.06758,0 -3.76435,0.5957288 -5.0903,1.7871863 -1.32595,1.1914574 -1.98892,2.7088797 -1.98892,4.5522671 0,1.843387 0.66297,3.349569 1.98892,4.518546 1.32595,1.168977 3.02272,1.753466 5.0903,1.753466 z m 2.09006,44.780816 c 1.07873,0 2.01139,-0.393405 2.79797,-1.180217 0.78658,-0.786811 1.17987,-1.719745 1.17987,-2.798801 v 0 -31.36006 c 0,-1.079056 -0.39329,-2.011989 -1.17987,-2.798801 -0.78658,-0.786812 -1.71924,-1.180217 -2.79797,-1.180217 v 0 h -4.24754 c -1.12368,0 -2.06758,0.393405 -2.83169,1.180217 -0.7641,0.786812 -1.14616,1.719745 -1.14616,2.798801 v 0 31.36006 c 0,1.079056 0.38206,2.01199 1.14616,2.798801 0.76411,0.786812 1.70801,1.180217 2.83169,1.180217 v 0 z m 29.3282,0.944174 c 1.70801,0 3.39354,-0.157362 5.05659,-0.472087 1.07874,-0.179842 1.91027,-0.764331 2.49458,-1.753465 0.40453,-0.67441 0.6068,-1.371301 0.6068,-2.090671 0,-0.314725 -0.0225,-0.65193 -0.0674,-1.011615 v 0 l -0.26968,-1.079056 c -0.22474,-0.944174 -0.78658,-1.697265 -1.68553,-2.259273 -0.89895,-0.562008 -1.91027,-0.865492 -3.03395,-0.910453 -3.10138,-0.134882 -4.65206,-2.158112 -4.65206,-6.069689 v 0 -14.499813 c 0,-0.314724 0.15731,-0.472087 0.47195,-0.472087 v 0 h 4.7869 c 1.07874,0 2.0114,-0.393406 2.79798,-1.180217 0.78658,-0.786812 1.17987,-1.719745 1.17987,-2.798801 v 0 -1.686025 c 0,-1.079056 -0.39329,-2.011989 -1.17987,-2.798801 -0.78658,-0.786812 -1.71924,-1.180217 -2.79798,-1.180217 v 0 h -4.7869 c -0.31464,0 -0.47195,-0.157363 -0.47195,-0.472087 v 0 -5.867366 c 0,-1.124017 -0.39329,-2.068191 -1.17987,-2.832522 -0.78658,-0.764331 -1.71924,-1.146497 -2.79798,-1.146497 v 0 H 187.797 c -1.12369,0 -2.11253,0.370926 -2.96653,1.112777 -0.854,0.741851 -1.3709,1.674784 -1.55069,2.798801 v 0 l -0.74163,5.934807 c -0.045,0.314724 -0.24721,0.494567 -0.60679,0.539528 v 0 l -1.55069,0.134882 c -1.12369,0.08992 -2.06758,0.550768 -2.83169,1.38254 -0.76411,0.831772 -1.14616,1.809666 -1.14616,2.933683 v 0 1.146497 c 0,1.079056 0.39329,2.011989 1.17987,2.798801 0.78658,0.786811 1.71924,1.180217 2.79798,1.180217 v 0 h 0.87647 c 0.31464,0 0.47195,0.157363 0.47195,0.472087 v 0 14.634695 c 0,4.900712 1.12369,8.711127 3.37106,11.431247 2.24737,2.72012 5.75327,4.08018 10.5177,4.08018 z m 32.96896,0 c 3.59579,0 7.14664,-0.831772 10.65254,-2.495316 0.98884,-0.449607 1.61811,-1.236419 1.88779,-2.360435 0.13485,-0.359685 0.20227,-0.719371 0.20227,-1.079056 0,-0.67441 -0.20227,-1.34882 -0.60679,-2.02323 v 0 l -0.20227,-0.404645 c -0.53937,-0.944174 -1.32595,-1.573623 -2.35974,-1.888348 -0.49442,-0.134882 -0.98884,-0.202323 -1.48326,-0.202323 -0.58432,0 -1.14616,0.08992 -1.68553,0.269764 -1.52822,0.539528 -3.10138,0.809292 -4.71949,0.809292 -5.30379,0 -8.51754,-2.360435 -9.64122,-7.081304 -0.045,-0.134882 -0.0225,-0.258524 0.0674,-0.370926 0.0899,-0.112401 0.20226,-0.168602 0.33711,-0.168602 v 0 h 18.54082 c 1.16863,0 2.20242,-0.370926 3.10137,-1.112776 0.89895,-0.741851 1.3709,-1.674785 1.41584,-2.798801 v 0 -1.281379 c 0,-5.665043 -1.43831,-10.251031 -4.31495,-13.757962 -2.87664,-3.506931 -7.05675,-5.260397 -12.54034,-5.260397 -2.38221,0 -4.68577,0.483327 -6.91067,1.449981 -2.2249,0.966654 -4.20258,2.315474 -5.93306,4.046459 -1.73048,1.730986 -3.12385,3.911578 -4.18011,6.541776 -1.05627,2.630199 -1.5844,5.496441 -1.5844,8.598727 0,6.339453 1.87656,11.352566 5.62967,15.03934 3.75311,3.686774 8.52878,5.530161 14.327,5.530161 z m 4.58464,-24.953166 h -12.33808 c -0.31463,0 -0.47195,-0.112401 -0.47195,-0.337205 0,-1.843387 0.87648,-3.484451 2.62943,-4.923192 1.25853,-1.079056 2.76427,-1.618584 4.51722,-1.618584 2.02263,0 3.53961,0.573249 4.55093,1.719746 1.01131,1.146496 1.56192,2.686399 1.65181,4.619707 v 0 0.06744 c 0,0.314725 -0.17979,0.472087 -0.53936,0.472088 z m 36.54227,24.953166 c 3.59579,0 7.14664,-0.831772 10.65254,-2.495316 0.98885,-0.449607 1.61811,-1.236419 1.8878,-2.360435 0.13484,-0.359685 0.20226,-0.719371 0.20226,-1.079056 0,-0.67441 -0.20226,-1.34882 -0.60679,-2.02323 v 0 l -0.20226,-0.404645 c -0.53937,-0.944174 -1.32595,-1.573623 -2.35974,-1.888348 -0.49443,-0.134882 -0.98885,-0.202323 -1.48327,-0.202323 -0.58432,0 -1.14616,0.08992 -1.68553,0.269764 -1.52821,0.539528 -3.10137,0.809292 -4.71948,0.809292 -5.3038,0 -8.51754,-2.360435 -9.64123,-7.081304 -0.0449,-0.134882 -0.0225,-0.258524 0.0674,-0.370926 0.0899,-0.112401 0.20227,-0.168602 0.33711,-0.168602 v 0 h 18.54082 c 1.16863,0 2.20242,-0.370926 3.10137,-1.112776 0.89895,-0.741851 1.3709,-1.674785 1.41585,-2.798801 v 0 -1.281379 c 0,-5.665043 -1.43832,-10.251031 -4.31496,-13.757962 -2.87663,-3.506931 -7.05675,-5.260397 -12.54033,-5.260397 -2.38222,0 -4.68578,0.483327 -6.91067,1.449981 -2.2249,0.966654 -4.20259,2.315474 -5.93307,4.046459 -1.73047,1.730986 -3.12384,3.911578 -4.18011,6.541776 -1.05626,2.630199 -1.5844,5.496441 -1.5844,8.598727 0,6.339453 1.87656,11.352566 5.62967,15.03934 3.75311,3.686774 8.52878,5.530161 14.327,5.530161 z m 4.58464,-24.953166 h -12.33808 c -0.31463,0 -0.47194,-0.112401 -0.47194,-0.337205 0,-1.843387 0.87647,-3.484451 2.62942,-4.923192 1.25853,-1.079056 2.76427,-1.618584 4.51722,-1.618584 2.02264,0 3.53961,0.573249 4.55093,1.719746 1.01132,1.146496 1.56192,2.686399 1.65182,4.619707 v 0 0.06744 c 0,0.314725 -0.17979,0.472087 -0.53937,0.472088 z"
     id="gitee"
     fill="#000000"
     fill-rule="nonzero"
     style="stroke:none;stroke-width:1;fill:#ffffff;fill-opacity:1" />
</svg>
