<?xml version="1.0" encoding="UTF-8" standalone="no"?>
<svg
   xmlns:dc="http://purl.org/dc/elements/1.1/"
   xmlns:cc="http://creativecommons.org/ns#"
   xmlns:rdf="http://www.w3.org/1999/02/22-rdf-syntax-ns#"
   xmlns:svg="http://www.w3.org/2000/svg"
   xmlns="http://www.w3.org/2000/svg"
   xmlns:sodipodi="http://sodipodi.sourceforge.net/DTD/sodipodi-0.dtd"
   xmlns:inkscape="http://www.inkscape.org/namespaces/inkscape"
   data-noselect=""
   viewBox="0 0 168.67276 165.12845"
   width="337.34552"
   height="330.2569"
   preserveAspectRatio="none"
   version="1.1"
   id="svg260"
   sodipodi:docname="only logo.svg"
   inkscape:version="1.0.2 (e86c870879, 2021-01-15, custom)"
   inkscape:export-filename="C:\Users\admin\Desktop\位图.png"
   inkscape:export-xdpi="90"
   inkscape:export-ydpi="90">
  <metadata
     id="metadata264">
    <rdf:RDF>
      <cc:Work
         rdf:about="">
        <dc:format>image/svg+xml</dc:format>
        <dc:type
           rdf:resource="http://purl.org/dc/dcmitype/StillImage" />
        <dc:title></dc:title>
      </cc:Work>
    </rdf:RDF>
  </metadata>
  <sodipodi:namedview
     pagecolor="#ffffff"
     bordercolor="#666666"
     borderopacity="1"
     objecttolerance="10"
     gridtolerance="10"
     guidetolerance="10"
     inkscape:pageopacity="0"
     inkscape:pageshadow="2"
     inkscape:window-width="1920"
     inkscape:window-height="986"
     id="namedview262"
     showgrid="false"
     inkscape:zoom="2.68"
     inkscape:cx="256.45767"
     inkscape:cy="160.83636"
     inkscape:window-x="-11"
     inkscape:window-y="-11"
     inkscape:window-maximized="1"
     inkscape:current-layer="svg260"
     inkscape:document-rotation="0"
     fit-margin-top="0"
     fit-margin-left="0"
     fit-margin-right="0"
     fit-margin-bottom="0" />
  <defs
     id="defs174">
    <rect
       x="270.14926"
       y="5.2238808"
       width="317.16418"
       height="129.85075"
       id="rect313" />
    <rect
       x="258.20895"
       y="44.776119"
       width="71.641792"
       height="22.38806"
       id="rect307" />
  </defs>
  <path
     d="m 100.87369,57.812401 c 0,7.52905 4.4284,16.770995 11.02552,20.392039 6.60016,-3.624003 11.02553,-12.865947 11.02553,-20.392039 0,-7.52609 -4.4284,-14.09367 -11.01339,-17.714715 -6.61229,3.621045 -11.03766,10.191583 -11.03766,17.714715 z"
     fill="#9abb1d"
     id="path178"
     style="stroke-width:0.299553" />
  <path
     d="m 130.79274,69.26129 c -5.42934,5.345773 -8.94779,14.954556 -6.87615,22.057603 7.30384,1.952523 17.11609,-1.582729 22.54546,-6.928503 5.42934,-5.345773 7.02175,-13.055283 4.94404,-20.158327 -7.30385,-1.949566 -15.19006,-0.316545 -20.61335,5.029227 z"
     fill="#cccd00"
     id="path180"
     style="stroke-width:0.299553" />
  <path
     d="m 140.61715,97.898307 c -7.34631,2.286823 -15.02626,9.218283 -16.55801,16.442623 5.54766,5.02922 15.92104,6.32794 23.27342,4.03521 7.35237,-2.29274 12.41471,-8.40473 13.95252,-15.63498 -5.55674,-5.026283 -13.31858,-7.141503 -20.66793,-4.842853 z"
     fill="#9fa037"
     id="path182"
     style="stroke-width:0.299553" />
  <path
     d="m 64.072387,57.812401 c 0,7.52905 -4.42841,16.770995 -11.025527,20.392039 -6.597116,-3.624003 -11.025526,-12.865947 -11.025526,-20.392039 0,-7.52609 4.425377,-14.09367 11.025526,-17.717673 6.600151,3.624003 11.025527,10.194541 11.025527,17.717673 z"
     fill="#cccd00"
     id="path184"
     style="stroke-width:0.299553" />
  <path
     d="m 94.255335,68.950661 c 0,7.52905 -4.428409,16.770995 -11.025526,20.394997 -6.597117,-3.621044 -11.025527,-12.865947 -11.025527,-20.394997 0,-7.529049 4.425376,-14.09367 11.025527,-17.714715 6.597117,3.624003 11.025526,10.194541 11.025526,17.714715 z"
     fill="#9fa037"
     id="path186"
     style="stroke-width:0.299553" />
  <path
     d="m 94.255335,27.15778 c 0,7.52905 -4.428409,16.770995 -11.025526,20.392039 C 76.632692,43.925817 72.204282,34.683871 72.204282,27.15778 c 0,-7.52609 4.42841,-14.09367 11.025527,-17.7147138 C 89.826926,13.06411 94.255335,19.637606 94.255335,27.15778 Z"
     fill="#cccd00"
     id="path188"
     style="stroke-width:0.299553" />
  <path
     d="m 34.156358,69.26129 c 5.429351,5.345773 8.947813,14.954556 6.876166,22.057603 C 33.728682,93.271416 23.916418,89.736164 18.487067,84.39039 13.057716,79.044617 11.465309,71.335107 13.543021,64.232063 20.84383,62.282497 28.73004,63.915518 34.156358,69.26129 Z"
     fill="#9abb1d"
     id="path190"
     style="stroke-width:0.299553" />
  <path
     fill="#612d1b"
     d="M 36.907432,98.995857 60.287007,111.6488 v 39.70428 h 8.868952 V 106.55154 L 41.208448,91.434268 Z"
     id="path192"
     style="stroke-width:0.299553;fill:#cc6a49;fill-opacity:1" />
  <path
     fill="#612d1b"
     d="m 116.30943,86.064827 -4.30406,-7.56455 -29.424658,15.91899 -29.427691,-15.91899 -4.30405,7.56455 29.294233,15.847983 v 49.44027 h 8.868951 v -49.44027 z"
     id="path194"
     style="stroke-width:0.299553;fill:#cc6a49;fill-opacity:1" />
  <path
     fill="#612d1b"
     d="m 123.94692,114.14568 -19.0725,10.32175 V 111.6488 l 23.37654,-12.652943 -4.30404,-7.561589 -27.944493,15.117272 v 44.80154 h 8.871993 v -16.99583 l 23.37654,-12.64703 z"
     id="path196"
     style="stroke-width:0.299553;fill:#cc6a49;fill-opacity:1" />
  <!---->
  <text
     xml:space="preserve"
     id="text305"
     style="font-style:normal;font-weight:normal;font-size:20px;line-height:1.25;font-family:sans-serif;white-space:pre;shape-inside:url(#rect307);fill:#000000;fill-opacity:1;stroke:none;"
     transform="matrix(0.58729589,0,0,0.57453313,-24.060039,79.767992)"><tspan
       style="visibility:hidden"
       x="258.20898"
       y="85.410669"><tspan
         dx="0 20 20 20">良途软件</tspan></tspan></text>
</svg>
