<?xml version="1.0" encoding="UTF-8" standalone="no"?>
<!-- Generator: Adobe Illustrator 25.0.1, SVG Export Plug-In . SVG Version: 6.00 Build 0)  -->

<svg
   version="1.1"
   id="svg255"
   inkscape:export-filename="C:\Users\admin\Desktop\1.png"
   sodipodi:docname="良图软件logo  横向  中英文 (3).svg"
   x="0px"
   y="0px"
   viewBox="0 0 513.17822 132.94417"
   xml:space="preserve"
   width="513.17822"
   height="132.94417"
   inkscape:version="1.1.1 (3bf5ae0d25, 2021-09-20)"
   inkscape:export-xdpi="90"
   inkscape:export-ydpi="90"
   xmlns:inkscape="http://www.inkscape.org/namespaces/inkscape"
   xmlns:sodipodi="http://sodipodi.sourceforge.net/DTD/sodipodi-0.dtd"
   xmlns="http://www.w3.org/2000/svg"
   xmlns:svg="http://www.w3.org/2000/svg"><defs
   id="defs39" />
<style
   type="text/css"
   id="style2">
	.st0{fill:#9ABB1D;}
	.st1{fill:#CCCD00;}
	.st2{fill:#9FA037;}
	.st3{fill:#E0683E;}
	.st4{fill:#E0673E;}
	.st5{fill:#E07171;}
	.st6{fill:#191919;}
	.st7{stroke:#000000;stroke-width:4.800000e-02;stroke-linecap:square;}
	.st8{font-family:'FZCHSJW--GB1-0';}
	.st9{font-size:37.8643px;}
</style>
<sodipodi:namedview
   bordercolor="#666666"
   borderopacity="1"
   gridtolerance="10"
   guidetolerance="10"
   id="namedview262"
   inkscape:current-layer="svg255"
   inkscape:cx="284.32836"
   inkscape:cy="181.34328"
   inkscape:document-rotation="0"
   inkscape:pageopacity="0"
   inkscape:pageshadow="2"
   inkscape:window-height="986"
   inkscape:window-maximized="1"
   inkscape:window-width="1920"
   inkscape:window-x="-11"
   inkscape:window-y="-11"
   inkscape:zoom="1.34"
   objecttolerance="10"
   pagecolor="#ffffff"
   showgrid="false"
   inkscape:pagecheckerboard="0"
   fit-margin-top="0"
   fit-margin-left="0"
   fit-margin-right="0"
   fit-margin-bottom="0">
	</sodipodi:namedview>
<g
   id="g200"
   transform="matrix(0.44701677,0,0,0.39213062,-14.802023,-6.1564507)">
	<path
   id="path178"
   class="st0"
   d="m 233.4,128.2 c 0,17.5 10.1,39 25,47.5 15,-8.4 25,-29.9 25,-47.5 0,-17.5 -10.1,-32.8 -25,-41.2 -15,8.4 -25,23.7 -25,41.2 z" />
	<path
   id="path180"
   class="st1"
   d="m 301.3,154.9 c -12.3,12.4 -20.3,34.8 -15.6,51.3 16.6,4.5 38.9,-3.7 51.2,-16.1 12.3,-12.4 15.9,-30.4 11.2,-46.9 -16.6,-4.6 -34.5,-0.8 -46.8,11.7 z" />
	<path
   id="path182"
   class="st2"
   d="m 323.6,221.5 c -16.7,5.3 -34.1,21.5 -37.6,38.3 12.6,11.7 36.1,14.7 52.8,9.4 16.7,-5.3 28.2,-19.6 31.7,-36.4 -12.6,-11.7 -30.2,-16.6 -46.9,-11.3 z" />
	<path
   id="path184"
   class="st1"
   d="m 149.8,128.2 c 0,17.5 -10.1,39 -25,47.5 -15,-8.4 -25,-29.9 -25,-47.5 0,-17.5 10,-32.8 25,-41.2 15,8.4 25,23.7 25,41.2 z" />
	<path
   id="path186"
   class="st2"
   d="m 218.3,154.1 c 0,17.5 -10.1,39 -25,47.5 -15,-8.4 -25,-29.9 -25,-47.5 0,-17.6 10,-32.8 25,-41.2 15,8.5 25,23.7 25,41.2 z" />
	<path
   id="path188"
   class="st1"
   d="m 218.3,56.9 c 0,17.5 -10.1,39 -25,47.5 -15,-8.4 -25,-29.9 -25,-47.5 0,-17.6 10.1,-32.8 25,-41.2 15,8.4 25,23.7 25,41.2 z" />
	<path
   id="path190"
   class="st0"
   d="m 81.9,154.9 c 12.3,12.4 20.3,34.8 15.6,51.3 C 80.9,210.7 58.6,202.5 46.3,190.1 34,177.7 30.4,159.7 35.1,143.2 c 16.6,-4.6 34.5,-0.8 46.8,11.7 z" />
	<path
   id="path192"
   class="st3"
   d="m 88.2,224.1 53.1,29.4 v 92.4 h 20.1 V 241.7 L 98,206.5 Z" />
	<path
   id="path194"
   class="st4"
   d="m 268.4,194 -9.8,-17.6 -66.8,37 -66.8,-37 -9.8,17.6 66.5,36.9 V 346 h 20.1 V 230.9 Z" />
	<path
   id="path196"
   class="st5"
   d="m 285.7,259.3 -43.3,24 v -29.8 l 53.1,-29.4 -9.8,-17.6 -63.4,35.2 V 346 h 20.1 V 306.4 L 295.5,277 Z" />
</g>
<g
   id="shape_wkxGRC3SaB"
   transform="matrix(0.5166232,0,0,0.63338641,22.191888,-31.131132)">
	<g
   id="g206"
   transform="translate(222.15818,-148.28135)">
		<path
   id="path203"
   class="st6"
   d="m 95.3,317.8 c 0,0 2.3,-0.1 6.5,-0.2 4.3,-0.1 10.5,-0.3 18.4,-0.4 15.9,-0.3 38.5,-0.8 65.7,-1.1 13.6,-0.2 28.3,-0.3 43.9,-0.5 15.6,-0.1 32,-0.3 49,-0.4 17,-0.1 34.6,-0.2 52.4,-0.3 17.8,0 36,-0.1 54.1,-0.1 18.1,0 36.2,0.1 54.1,0.1 17.8,0 35.4,0.2 52.4,0.3 34,0.2 65.7,0.5 92.9,0.9 27.2,0.3 49.8,0.9 65.7,1.1 7.9,0.1 14.2,0.3 18.4,0.4 4.3,0.1 6.5,0.2 6.5,0.2 0,0 -2.3,0.1 -6.5,0.2 -4.3,0.1 -10.5,0.3 -18.4,0.4 -15.9,0.3 -38.5,0.8 -65.7,1.1 -27.2,0.4 -58.9,0.7 -92.9,0.9 -17,0.1 -34.6,0.3 -52.4,0.3 -17.8,0 -36,0.1 -54.1,0.1 -18.1,0 -36.3,-0.1 -54.1,-0.1 -17.8,0 -35.4,-0.2 -52.4,-0.3 -17,-0.1 -33.4,-0.3 -49,-0.4 -15.6,-0.2 -30.3,-0.4 -43.9,-0.5 -27.2,-0.3 -49.8,-0.9 -65.7,-1.1 -7.9,-0.1 -14.2,-0.3 -18.4,-0.4 -4.2,-0.1 -6.5,-0.2 -6.5,-0.2 z" />
	</g>
</g>
<g
   id="shape_StP79M5PUJ"
   transform="matrix(0.75776695,0,0,0.63338641,124.29224,-102.67557)">
	<g
   id="g213">
		<path
   id="path209"
   class="st6"
   d="m 49.2,369 c 0,0 1.8,-0.1 5.2,-0.2 3.4,-0.1 8.4,-0.3 14.7,-0.4 12.7,-0.3 30.8,-0.8 52.6,-1.1 10.9,-0.2 22.7,-0.3 35.1,-0.5 12.5,-0.1 25.6,-0.3 39.2,-0.4 13.6,-0.1 27.6,-0.2 41.9,-0.3 14.3,0 28.8,-0.1 43.3,-0.1 14.5,0 29,0.1 43.3,0.1 14.3,0 28.3,0.2 41.9,0.3 27.2,0.2 52.6,0.5 74.3,0.9 21.8,0.3 39.9,0.9 52.6,1.1 6.3,0.1 11.3,0.3 14.7,0.4 3.4,0.1 5.2,0.2 5.2,0.2 0,0 -1.8,0.1 -5.2,0.2 -3.4,0.1 -8.4,0.3 -14.7,0.4 -12.7,0.3 -30.8,0.8 -52.6,1.1 -21.7,0.4 -47.1,0.7 -74.3,0.9 -13.6,0.1 -27.6,0.3 -41.9,0.3 -14.3,0 -28.8,0.1 -43.3,0.1 -14.5,0 -29,-0.1 -43.3,-0.1 -14.3,0 -28.3,-0.2 -41.9,-0.3 -13.6,-0.1 -26.7,-0.3 -39.2,-0.4 -12.5,-0.2 -24.2,-0.4 -35.1,-0.5 -21.8,-0.3 -39.9,-0.9 -52.6,-1.1 -6.3,-0.1 -11.3,-0.3 -14.7,-0.4 -3.3,-0.1 -5.2,-0.2 -5.2,-0.2 z" />
	</g>
</g>
<g
   id="shape_wtcyWSCFpo"
   transform="matrix(0.52158267,0,0,0.40339649,134.19859,-96.898494)">
	<g
   id="g257">
		<g
   id="g253"
   transform="translate(29.087158)">
			<path
   id="path231"
   class="st7"
   d="m 130.8,485.8 v -4.9 h 13.9 v 4.9 h -4.3 V 519 h 14.8 c 0.3,0 0.6,-0.1 0.9,-0.2 0.3,-0.1 0.6,-0.3 0.8,-0.6 0.2,-0.2 0.4,-0.5 0.6,-0.8 0.1,-0.3 0.2,-0.6 0.2,-0.9 v 0 -5.4 h 5.4 v 12.7 H 130.7 V 519 h 4.1 v -33.2 z" />
			<path
   id="path233"
   class="st7"
   d="m 167.5,485.8 v -4.9 h 13.7 v 4.9 h -4.1 V 519 h 4.1 v 4.9 H 167.5 V 519 h 4.1 v -33.2 z" />
			<path
   id="path235"
   class="st7"
   d="M 214.7,523.9 V 519 h 3.6 l -3.4,-9.7 h -16.5 l -3.3,9.7 h 4.4 v 4.9 H 185.6 V 519 h 3.7 l 13.4,-38.1 h 8.4 l 13.3,38.1 h 4.3 v 4.9 z m -8.1,-38.5 -6.6,19.2 h 13.3 z" />
			<path
   id="path237"
   class="st7"
   d="m 259.6,485.8 v -4.9 h 13.9 v 4.9 h -3.6 v 38 h -7.3 l -20,-35.6 V 519 h 4.4 v 4.9 H 233.1 V 519 h 4 V 485.8 H 233 v -5 h 11.6 l 19.6,35.3 0.2,-1.4 v -28.9 z" />
			<path
   id="path239"
   class="st7"
   d="m 317.4,524 h -5.3 v -8.6 c -0.7,1.5 -1.6,2.8 -2.7,3.9 -1.1,1.1 -2.3,2 -3.6,2.7 -1.3,0.7 -2.7,1.3 -4.2,1.6 -1.5,0.4 -3,0.5 -4.6,0.5 v 0 c -2.8,0 -5.4,-0.5 -7.7,-1.4 -2.4,-0.9 -4.5,-2.4 -6.4,-4.5 -1.9,-2 -3.4,-4.5 -4.4,-7.3 -1,-2.8 -1.5,-5.7 -1.5,-8.7 v 0 c 0,-3.1 0.5,-6 1.5,-8.7 1,-2.7 2.4,-5.1 4.2,-7.1 1.8,-2 4,-3.6 6.5,-4.8 2.5,-1.1 5.3,-1.7 8.2,-1.7 v 0 c 2.7,0 5.1,0.4 7,1.2 2,0.8 3.6,1.7 5,2.8 1.4,1.1 2.5,2.2 3.3,3.2 v 0 h 2.8 v 5 h -6.1 c -1.3,-2.2 -2.9,-3.9 -5,-5.1 -2.1,-1.3 -4.4,-1.9 -7,-1.8 v 0 c -2.2,0 -4.2,0.5 -6,1.4 -1.8,0.9 -3.4,2.2 -4.7,3.7 -1.3,1.6 -2.3,3.4 -3,5.4 -0.7,2 -1.1,4.2 -1.1,6.5 v 0 c 0,2.5 0.4,4.8 1.2,7 0.8,2.1 1.8,3.9 3,5.2 1.2,1.3 2.7,2.4 4.5,3.3 1.8,0.9 3.8,1.3 6,1.3 v 0 c 3.6,0 6.6,-0.9 8.9,-2.7 2.3,-1.8 3.9,-4.5 4.9,-8.2 v 0 h -12 v -4.9 h 18.2 V 524 Z" />
			<path
   id="path241"
   class="st7"
   d="M 335.4,523.9 V 519 h 3.9 v -33.4 h -9.8 v 6.7 h -5.8 V 481 H 362 v 11.3 h -5.8 v -6.7 H 344.9 V 519 h 4.4 v 4.9 z" />
			<path
   id="path243"
   class="st7"
   d="m 366.4,485.8 v -4.9 h 13.9 v 4.9 h -4.4 v 20 c 0,2.4 0.3,4.4 0.8,6.1 0.5,1.7 1.3,3.1 2.2,4.1 1,1.1 2.1,1.8 3.4,2.3 1.3,0.5 2.7,0.7 4.3,0.7 v 0 c 1.6,0 3.1,-0.2 4.5,-0.7 1.4,-0.4 2.5,-1.2 3.5,-2.2 1,-1 1.7,-2.4 2.3,-4.1 0.5,-1.7 0.8,-3.8 0.8,-6.4 v 0 -20 h -4.6 v -4.9 H 407 v 4.9 h -3.8 V 505 c 0,3.1 -0.4,5.8 -1.3,8.2 -0.9,2.4 -2,4.4 -3.5,6 -1.5,1.6 -3.2,2.8 -5.3,3.7 -2,0.8 -4.2,1.3 -6.5,1.3 v 0 c -2.3,0 -4.4,-0.4 -6.4,-1.2 -2,-0.8 -3.7,-2 -5.1,-3.7 -1.5,-1.6 -2.6,-3.6 -3.5,-5.9 -0.8,-2.3 -1.3,-5 -1.3,-8 v 0 -19.9 h -3.9 z" />
			<path
   id="path245"
   class="st7"
   d="m 433.2,492.6 c 0,-1.7 -0.3,-2.9 -0.9,-3.7 -0.6,-0.8 -1.3,-1.5 -2,-1.9 -0.7,-0.4 -1.5,-0.8 -2.4,-1 -0.9,-0.2 -1.7,-0.3 -2.6,-0.3 v 0 c -1.4,0 -2.7,0.2 -3.8,0.5 -1.1,0.3 -2,0.8 -2.7,1.4 -0.7,0.6 -1.3,1.2 -1.6,2 -0.4,0.7 -0.5,1.5 -0.5,2.4 v 0 c 0,1.2 0.2,2.2 0.7,3 0.4,0.8 1,1.4 1.7,1.9 0.7,0.5 1.4,0.8 2.3,1.1 0.8,0.3 1.6,0.5 2.4,0.8 v 0 l 5.7,1.9 c 1.7,0.5 3.2,1.2 4.5,1.9 1.3,0.7 2.4,1.5 3.3,2.5 0.9,1 1.6,2.1 2,3.3 0.5,1.3 0.7,2.7 0.7,4.3 v 0 c 0,1.8 -0.4,3.4 -1.1,4.9 -0.7,1.5 -1.8,2.8 -3.1,3.9 -1.3,1.1 -2.8,2 -4.7,2.6 -1.8,0.6 -3.8,1 -5.9,1 v 0 c -2.2,0 -4.1,-0.3 -5.7,-0.8 -1.6,-0.5 -2.9,-1.2 -4,-2 -1.1,-0.8 -1.9,-1.8 -2.6,-2.9 -0.6,-1.1 -1.1,-2.2 -1.5,-3.3 v 0 h -2.2 V 511 h 7.1 c 0,2.1 0.2,3.6 0.7,4.4 0.5,0.9 1.1,1.6 1.9,2.2 0.8,0.6 1.7,1 2.8,1.3 1.1,0.3 2.3,0.4 3.6,0.4 v 0 c 1.3,0 2.4,-0.1 3.5,-0.4 1,-0.3 1.9,-0.7 2.6,-1.3 0.7,-0.6 1.3,-1.3 1.7,-2.1 0.4,-0.8 0.6,-1.7 0.6,-2.8 v 0 c 0,-1.2 -0.2,-2.1 -0.7,-2.9 -0.5,-0.8 -1.1,-1.5 -1.9,-2.1 -0.8,-0.6 -1.6,-1 -2.5,-1.4 -0.9,-0.4 -1.8,-0.7 -2.6,-0.9 v 0 l -6.2,-1.7 c -1.4,-0.4 -2.6,-1 -3.7,-1.6 -1.1,-0.6 -2.1,-1.4 -2.9,-2.3 -0.8,-0.9 -1.4,-2 -1.9,-3.2 -0.4,-1.2 -0.7,-2.7 -0.7,-4.3 v 0 c 0,-1.6 0.3,-3.2 1,-4.6 0.7,-1.4 1.6,-2.7 2.8,-3.8 1.3,-1.1 2.8,-1.9 4.6,-2.5 1.8,-0.6 3.9,-0.9 6.2,-0.9 v 0 c 1.5,0 2.9,0.2 4.2,0.5 1.3,0.4 2.5,0.9 3.5,1.5 1.1,0.7 2,1.4 2.8,2.3 0.8,0.9 1.5,1.9 2,3 v 0 h 2.1 v 4.9 h -6.6 z" />
			<path
   id="path247"
   class="st7"
   d="m 464,524.7 v 0 c -3,0 -5.7,-0.5 -8.1,-1.6 -2.5,-1.1 -4.6,-2.7 -6.6,-4.7 -1.9,-2 -3.4,-4.5 -4.4,-7.3 -1,-2.8 -1.5,-5.7 -1.5,-8.7 v 0 c 0,-3.1 0.5,-6 1.5,-8.7 1,-2.7 2.4,-5.1 4.2,-7.1 1.8,-2 4,-3.6 6.5,-4.8 2.5,-1.2 5.3,-1.7 8.3,-1.7 v 0 c 3,0 5.8,0.6 8.4,1.7 2.5,1.2 4.7,2.7 6.5,4.8 1.8,2 3.2,4.4 4.2,7.1 1,2.7 1.5,5.6 1.5,8.7 v 0 c 0,3.1 -0.5,6 -1.5,8.7 -1,2.7 -2.4,5.1 -4.2,7.1 -1.8,2 -4,3.6 -6.5,4.8 -2.5,1.1 -5.3,1.7 -8.3,1.7 z m 0,-5.2 v 0 c 2.3,0 4.3,-0.5 6.1,-1.4 1.8,-0.9 3.4,-2.2 4.6,-3.7 1.3,-1.6 2.3,-3.4 3,-5.4 0.7,-2.1 1.1,-4.2 1.1,-6.5 v 0 c 0,-2.3 -0.4,-4.6 -1.2,-6.8 -0.8,-2.2 -1.8,-4 -3.2,-5.5 -1.4,-1.5 -2.9,-2.7 -4.8,-3.5 -1.8,-0.8 -3.7,-1.2 -5.7,-1.2 v 0 c -2.2,0 -4.3,0.5 -6.1,1.4 -1.8,0.9 -3.4,2.2 -4.7,3.7 -1.3,1.6 -2.3,3.4 -3,5.4 -0.7,2.1 -1,4.2 -1,6.5 v 0 c 0,2.6 0.4,5 1.2,7.1 0.8,2.1 1.8,3.8 3.1,5.2 1.3,1.4 2.8,2.5 4.5,3.4 1.9,0.8 3.9,1.3 6.1,1.3 z" />
			<path
   id="path249"
   class="st7"
   d="m 490.7,485.8 v -4.9 h 30.8 v 12.2 h -5.8 v -7.3 h -15.3 v 13.8 h 14.8 v 4.8 H 500.4 V 519 h 4.3 v 4.9 H 490.8 V 519 h 4.1 v -33.2 z" />
			<path
   id="path251"
   class="st7"
   d="M 534.6,523.9 V 519 h 3.9 v -33.4 h -9.8 v 6.7 H 523 V 481 h 38.3 v 11.3 h -5.8 v -6.7 H 544.2 V 519 h 4.4 v 4.9 z" />
		</g>
	</g>
</g>
<text
   transform="scale(1.0218735,0.97859472)"
   class="st8 st9"
   id="text36"
   x="226.01826"
   y="55.872025"
   style="font-style:normal;font-variant:normal;font-weight:normal;font-stretch:normal;font-size:52.6437px;font-family:FZCuHeiSongS-B-GB;-inkscape-font-specification:'FZCuHeiSongS-B-GB, Normal';font-variant-ligatures:normal;font-variant-caps:normal;font-variant-numeric:normal;font-variant-east-asian:normal;stroke-width:1.4067">良途软件</text>
</svg>
