<?xml version="1.0" encoding="UTF-8" standalone="no"?>
<svg
   width="600mm"
   height="297mm"
   viewBox="0 0 600 297"
   version="1.1"
   id="svg8"
   inkscape:version="1.2.2 (732a01da63, 2022-12-09)"
   sodipodi:docname="tsvg.svg"
   xml:space="preserve"
   xmlns:inkscape="http://www.inkscape.org/namespaces/inkscape"
   xmlns:sodipodi="http://sodipodi.sourceforge.net/DTD/sodipodi-0.dtd"
   xmlns="http://www.w3.org/2000/svg"
   xmlns:svg="http://www.w3.org/2000/svg"
   xmlns:rdf="http://www.w3.org/1999/02/22-rdf-syntax-ns#"
   xmlns:cc="http://creativecommons.org/ns#"
   xmlns:dc="http://purl.org/dc/elements/1.1/"><defs
     id="defs2"><rect
       x="2086.9751"
       y="406.08132"
       width="0"
       height="36.365491"
       id="rect29656" /><marker
       style="overflow:visible"
       id="Arrow2Sstart"
       refX="0"
       refY="0"
       orient="auto"
       inkscape:stockid="Arrow2Sstart"
       inkscape:isstock="true"
       viewBox="0 0 3.4652294 2.5981128"
       markerWidth="8"
       markerHeight="5.9981318"
       preserveAspectRatio="xMidYMid"><path
         transform="matrix(0.3,0,0,0.3,-0.69,0)"
         d="M 8.7185878,4.0337352 -2.2072895,0.01601326 8.7185884,-4.0017078 c -1.7454984,2.3720609 -1.7354408,5.6174519 -6e-7,8.035443 z"
         style="fill:#8c8e8c;fill-opacity:1;fill-rule:evenodd;stroke:#8c8e8c;stroke-width:0.625;stroke-linejoin:round;stroke-opacity:1"
         id="path911" /></marker><marker
       style="overflow:visible"
       id="Arrow2Send"
       refX="0"
       refY="0"
       orient="auto"
       inkscape:stockid="Arrow2Send"
       inkscape:isstock="true"
       viewBox="0 0 3.4652294 2.5981128"
       markerWidth="3.4652293"
       markerHeight="2.5981128"
       preserveAspectRatio="xMidYMid"><path
         transform="matrix(-0.3,0,0,-0.3,0.69,0)"
         d="M 8.7185878,4.0337352 -2.2072895,0.01601326 8.7185884,-4.0017078 c -1.7454984,2.3720609 -1.7354408,5.6174519 -6e-7,8.035443 z"
         style="fill:#8c8e8c;fill-opacity:1;fill-rule:evenodd;stroke:#8c8e8c;stroke-width:0.625;stroke-linejoin:round;stroke-opacity:1"
         id="path914" /></marker><marker
       style="overflow:visible"
       id="Arrow1Mend"
       refX="0"
       refY="0"
       orient="auto"
       inkscape:stockid="Arrow1Mend"
       inkscape:isstock="true"><path
         transform="matrix(-0.4,0,0,-0.4,-4,0)"
         style="fill:#000000;fill-opacity:1;fill-rule:evenodd;stroke:#000000;stroke-width:1pt;stroke-opacity:1"
         d="M 0,0 5,-5 -12.5,0 5,5 Z"
         id="path890" /></marker><marker
       style="overflow:visible"
       id="Arrow1Mstart"
       refX="0"
       refY="0"
       orient="auto"
       inkscape:stockid="Arrow1Mstart"
       inkscape:isstock="true"><path
         transform="matrix(0.4,0,0,0.4,4,0)"
         style="fill:#000000;fill-opacity:1;fill-rule:evenodd;stroke:#000000;stroke-width:1pt;stroke-opacity:1"
         d="M 0,0 5,-5 -12.5,0 5,5 Z"
         id="path887" /></marker><marker
       style="overflow:visible"
       id="Arrow1Lend"
       refX="0"
       refY="0"
       orient="auto"
       inkscape:stockid="Arrow1Lend"
       inkscape:isstock="true"><path
         transform="matrix(-0.8,0,0,-0.8,-10,0)"
         style="fill:#000000;fill-opacity:1;fill-rule:evenodd;stroke:#000000;stroke-width:1pt;stroke-opacity:1"
         d="M 0,0 5,-5 -12.5,0 5,5 Z"
         id="path884" /></marker><marker
       style="overflow:visible"
       id="Arrow1Lstart"
       refX="0"
       refY="0"
       orient="auto"
       inkscape:stockid="Arrow1Lstart"
       inkscape:isstock="true"><path
         transform="matrix(0.8,0,0,0.8,10,0)"
         style="fill:#000000;fill-opacity:1;fill-rule:evenodd;stroke:#000000;stroke-width:1pt;stroke-opacity:1"
         d="M 0,0 5,-5 -12.5,0 5,5 Z"
         id="path881" /></marker><rect
       x="27.970238"
       y="122.84226"
       width="30.616072"
       height="17.764881"
       id="rect837" /><rect
       x="27.970238"
       y="122.84226"
       width="45.735119"
       height="17.764881"
       id="rect837-7" /><rect
       x="27.970238"
       y="122.84226"
       width="30.616072"
       height="17.764881"
       id="rect852" /><rect
       x="27.970238"
       y="122.84226"
       width="144.31534"
       height="18.213203"
       id="rect837-7-7" /><rect
       x="27.970238"
       y="122.84226"
       width="45.735119"
       height="17.764881"
       id="rect1796" /><marker
       style="overflow:visible"
       id="Arrow2Sstart-6"
       refX="0"
       refY="0"
       orient="auto"
       inkscape:stockid="Arrow2Sstart"
       inkscape:isstock="true"><path
         transform="matrix(0.3,0,0,0.3,-0.69,0)"
         d="M 8.7185878,4.0337352 -2.2072895,0.01601326 8.7185884,-4.0017078 c -1.7454984,2.3720609 -1.7354408,5.6174519 -6e-7,8.035443 z"
         style="fill:#8c8e8c;fill-opacity:1;fill-rule:evenodd;stroke:#8c8e8c;stroke-width:0.625;stroke-linejoin:round;stroke-opacity:1"
         id="path911-9" /></marker><marker
       style="overflow:visible"
       id="Arrow2Send-4"
       refX="0"
       refY="0"
       orient="auto"
       inkscape:stockid="Arrow2Send"
       inkscape:isstock="true"><path
         transform="matrix(-0.3,0,0,-0.3,0.69,0)"
         d="M 8.7185878,4.0337352 -2.2072895,0.01601326 8.7185884,-4.0017078 c -1.7454984,2.3720609 -1.7354408,5.6174519 -6e-7,8.035443 z"
         style="fill:#8c8e8c;fill-opacity:1;fill-rule:evenodd;stroke:#8c8e8c;stroke-width:0.625;stroke-linejoin:round;stroke-opacity:1"
         id="path914-0" /></marker><rect
       x="27.970238"
       y="122.84226"
       width="69.885094"
       height="24.377951"
       id="rect837-7-7-9" /><rect
       x="27.970238"
       y="122.84226"
       width="45.735119"
       height="17.764881"
       id="rect2021" /><marker
       style="overflow:visible"
       id="Arrow2Sstart-2"
       refX="0"
       refY="0"
       orient="auto"
       inkscape:stockid="Arrow2Sstart"
       inkscape:isstock="true"><path
         transform="matrix(0.3,0,0,0.3,-0.69,0)"
         d="M 8.7185878,4.0337352 -2.2072895,0.01601326 8.7185884,-4.0017078 c -1.7454984,2.3720609 -1.7354408,5.6174519 -6e-7,8.035443 z"
         style="fill:#8c8e8c;fill-opacity:1;fill-rule:evenodd;stroke:#8c8e8c;stroke-width:0.625;stroke-linejoin:round;stroke-opacity:1"
         id="path911-6" /></marker><marker
       style="overflow:visible"
       id="Arrow2Send-7"
       refX="0"
       refY="0"
       orient="auto"
       inkscape:stockid="Arrow2Send"
       inkscape:isstock="true"><path
         transform="matrix(-0.3,0,0,-0.3,0.69,0)"
         d="M 8.7185878,4.0337352 -2.2072895,0.01601326 8.7185884,-4.0017078 c -1.7454984,2.3720609 -1.7354408,5.6174519 -6e-7,8.035443 z"
         style="fill:#8c8e8c;fill-opacity:1;fill-rule:evenodd;stroke:#8c8e8c;stroke-width:0.625;stroke-linejoin:round;stroke-opacity:1"
         id="path914-6" /></marker><rect
       x="27.970238"
       y="122.84226"
       width="69.885094"
       height="24.377951"
       id="rect837-7-7-9-8" /><rect
       x="27.970238"
       y="122.84226"
       width="69.885094"
       height="24.377951"
       id="rect2277" /><marker
       style="overflow:visible"
       id="Arrow2Sstart-1"
       refX="0"
       refY="0"
       orient="auto"
       inkscape:stockid="Arrow2Sstart"
       inkscape:isstock="true"><path
         transform="matrix(0.3,0,0,0.3,-0.69,0)"
         d="M 8.7185878,4.0337352 -2.2072895,0.01601326 8.7185884,-4.0017078 c -1.7454984,2.3720609 -1.7354408,5.6174519 -6e-7,8.035443 z"
         style="fill:#000000;fill-opacity:1;fill-rule:evenodd;stroke:#000000;stroke-width:0.625;stroke-linejoin:round;stroke-opacity:1"
         id="path911-8" /></marker><marker
       style="overflow:visible"
       id="Arrow2Send-3"
       refX="0"
       refY="0"
       orient="auto"
       inkscape:stockid="Arrow2Send"
       inkscape:isstock="true"><path
         transform="matrix(-0.3,0,0,-0.3,0.69,0)"
         d="M 8.7185878,4.0337352 -2.2072895,0.01601326 8.7185884,-4.0017078 c -1.7454984,2.3720609 -1.7354408,5.6174519 -6e-7,8.035443 z"
         style="fill:#000000;fill-opacity:1;fill-rule:evenodd;stroke:#000000;stroke-width:0.625;stroke-linejoin:round;stroke-opacity:1"
         id="path914-04" /></marker><rect
       x="27.970238"
       y="122.84226"
       width="78.595191"
       height="14.178302"
       id="rect837-7-7-8" /><rect
       x="27.970238"
       y="122.84226"
       width="45.735119"
       height="17.764881"
       id="rect2614" /><marker
       style="overflow:visible"
       id="Arrow2Sstart-1-4"
       refX="0"
       refY="0"
       orient="auto"
       inkscape:stockid="Arrow2Sstart"
       inkscape:isstock="true"><path
         transform="matrix(0.3,0,0,0.3,-0.69,0)"
         d="M 8.7185878,4.0337352 -2.2072895,0.01601326 8.7185884,-4.0017078 c -1.7454984,2.3720609 -1.7354408,5.6174519 -6e-7,8.035443 z"
         style="fill:#000000;fill-opacity:1;fill-rule:evenodd;stroke:#000000;stroke-width:0.625;stroke-linejoin:round;stroke-opacity:1"
         id="path911-8-7" /></marker><marker
       style="overflow:visible"
       id="Arrow2Send-3-8"
       refX="0"
       refY="0"
       orient="auto"
       inkscape:stockid="Arrow2Send"
       inkscape:isstock="true"><path
         transform="matrix(-0.3,0,0,-0.3,0.69,0)"
         d="M 8.7185878,4.0337352 -2.2072895,0.01601326 8.7185884,-4.0017078 c -1.7454984,2.3720609 -1.7354408,5.6174519 -6e-7,8.035443 z"
         style="fill:#000000;fill-opacity:1;fill-rule:evenodd;stroke:#000000;stroke-width:0.625;stroke-linejoin:round;stroke-opacity:1"
         id="path914-04-0" /></marker><rect
       x="27.970238"
       y="122.84226"
       width="78.595192"
       height="14.178302"
       id="rect837-7-7-8-5" /><rect
       x="27.970238"
       y="122.84226"
       width="78.595192"
       height="14.178302"
       id="rect2922" /><marker
       style="overflow:visible"
       id="Arrow2Sstart-1-48"
       refX="0"
       refY="0"
       orient="auto"
       inkscape:stockid="Arrow2Sstart"
       inkscape:isstock="true"><path
         transform="matrix(0.3,0,0,0.3,-0.69,0)"
         d="M 8.7185878,4.0337352 -2.2072895,0.01601326 8.7185884,-4.0017078 c -1.7454984,2.3720609 -1.7354408,5.6174519 -6e-7,8.035443 z"
         style="fill:#000000;fill-opacity:1;fill-rule:evenodd;stroke:#000000;stroke-width:0.625;stroke-linejoin:round;stroke-opacity:1"
         id="path911-8-1" /></marker><marker
       style="overflow:visible"
       id="Arrow2Send-3-85"
       refX="0"
       refY="0"
       orient="auto"
       inkscape:stockid="Arrow2Send"
       inkscape:isstock="true"><path
         transform="matrix(-0.3,0,0,-0.3,0.69,0)"
         d="M 8.7185878,4.0337352 -2.2072895,0.01601326 8.7185884,-4.0017078 c -1.7454984,2.3720609 -1.7354408,5.6174519 -6e-7,8.035443 z"
         style="fill:#000000;fill-opacity:1;fill-rule:evenodd;stroke:#000000;stroke-width:0.625;stroke-linejoin:round;stroke-opacity:1"
         id="path914-04-06" /></marker><marker
       style="overflow:visible"
       id="Arrow2Sstart-1-48-6"
       refX="0"
       refY="0"
       orient="auto"
       inkscape:stockid="Arrow2Sstart"
       inkscape:isstock="true"><path
         transform="matrix(0.3,0,0,0.3,-0.69,0)"
         d="M 8.7185878,4.0337352 -2.2072895,0.01601326 8.7185884,-4.0017078 c -1.7454984,2.3720609 -1.7354408,5.6174519 -6e-7,8.035443 z"
         style="fill:#000000;fill-opacity:1;fill-rule:evenodd;stroke:#000000;stroke-width:0.625;stroke-linejoin:round;stroke-opacity:1"
         id="path911-8-1-6" /></marker><marker
       style="overflow:visible"
       id="Arrow2Send-3-85-6"
       refX="0"
       refY="0"
       orient="auto"
       inkscape:stockid="Arrow2Send"
       inkscape:isstock="true"><path
         transform="matrix(-0.3,0,0,-0.3,0.69,0)"
         d="M 8.7185878,4.0337352 -2.2072895,0.01601326 8.7185884,-4.0017078 c -1.7454984,2.3720609 -1.7354408,5.6174519 -6e-7,8.035443 z"
         style="fill:#000000;fill-opacity:1;fill-rule:evenodd;stroke:#000000;stroke-width:0.625;stroke-linejoin:round;stroke-opacity:1"
         id="path914-04-06-1" /></marker><rect
       x="27.970238"
       y="122.84226"
       width="124.23258"
       height="30.859858"
       id="rect837-7-7-8-5-9" /><rect
       x="27.970238"
       y="122.84226"
       width="78.595192"
       height="14.178302"
       id="rect3630" /><marker
       style="overflow:visible"
       id="Arrow2Sstart-1-48-65"
       refX="0"
       refY="0"
       orient="auto"
       inkscape:stockid="Arrow2Sstart"
       inkscape:isstock="true"><path
         transform="matrix(0.3,0,0,0.3,-0.69,0)"
         d="M 8.7185878,4.0337352 -2.2072895,0.01601326 8.7185884,-4.0017078 c -1.7454984,2.3720609 -1.7354408,5.6174519 -6e-7,8.035443 z"
         style="fill:#000000;fill-opacity:1;fill-rule:evenodd;stroke:#000000;stroke-width:0.625;stroke-linejoin:round;stroke-opacity:1"
         id="path911-8-1-5" /></marker><marker
       style="overflow:visible"
       id="Arrow2Send-3-85-3"
       refX="0"
       refY="0"
       orient="auto"
       inkscape:stockid="Arrow2Send"
       inkscape:isstock="true"><path
         transform="matrix(-0.3,0,0,-0.3,0.69,0)"
         d="M 8.7185878,4.0337352 -2.2072895,0.01601326 8.7185884,-4.0017078 c -1.7454984,2.3720609 -1.7354408,5.6174519 -6e-7,8.035443 z"
         style="fill:#000000;fill-opacity:1;fill-rule:evenodd;stroke:#000000;stroke-width:0.625;stroke-linejoin:round;stroke-opacity:1"
         id="path914-04-06-5" /></marker><rect
       x="27.970238"
       y="122.84226"
       width="78.595192"
       height="14.178302"
       id="rect837-7-7-8-5-7" /><rect
       x="27.970238"
       y="122.84226"
       width="78.595192"
       height="14.178302"
       id="rect4062" /><marker
       style="overflow:visible"
       id="Arrow2Sstart-1-48-6-2"
       refX="0"
       refY="0"
       orient="auto"
       inkscape:stockid="Arrow2Sstart"
       inkscape:isstock="true"><path
         transform="matrix(0.3,0,0,0.3,-0.69,0)"
         d="M 8.7185878,4.0337352 -2.2072895,0.01601326 8.7185884,-4.0017078 c -1.7454984,2.3720609 -1.7354408,5.6174519 -6e-7,8.035443 z"
         style="fill:#000000;fill-opacity:1;fill-rule:evenodd;stroke:#000000;stroke-width:0.625;stroke-linejoin:round;stroke-opacity:1"
         id="path911-8-1-6-7" /></marker><marker
       style="overflow:visible"
       id="Arrow2Send-3-85-6-6"
       refX="0"
       refY="0"
       orient="auto"
       inkscape:stockid="Arrow2Send"
       inkscape:isstock="true"><path
         transform="matrix(-0.3,0,0,-0.3,0.69,0)"
         d="M 8.7185878,4.0337352 -2.2072895,0.01601326 8.7185884,-4.0017078 c -1.7454984,2.3720609 -1.7354408,5.6174519 -6e-7,8.035443 z"
         style="fill:#000000;fill-opacity:1;fill-rule:evenodd;stroke:#000000;stroke-width:0.625;stroke-linejoin:round;stroke-opacity:1"
         id="path914-04-06-1-8" /></marker><rect
       x="27.970238"
       y="122.84226"
       width="78.595192"
       height="14.178302"
       id="rect837-7-7-8-5-7-9" /><rect
       x="27.970238"
       y="122.84226"
       width="78.595192"
       height="14.178302"
       id="rect4415" /><marker
       style="overflow:visible"
       id="Arrow2Sstart-1-48-6-2-8"
       refX="0"
       refY="0"
       orient="auto"
       inkscape:stockid="Arrow2Sstart"
       inkscape:isstock="true"><path
         transform="matrix(0.3,0,0,0.3,-0.69,0)"
         d="M 8.7185878,4.0337352 -2.2072895,0.01601326 8.7185884,-4.0017078 c -1.7454984,2.3720609 -1.7354408,5.6174519 -6e-7,8.035443 z"
         style="fill:#000000;fill-opacity:1;fill-rule:evenodd;stroke:#000000;stroke-width:0.625;stroke-linejoin:round;stroke-opacity:1"
         id="path911-8-1-6-7-5" /></marker><marker
       style="overflow:visible"
       id="Arrow2Send-3-85-6-6-4"
       refX="0"
       refY="0"
       orient="auto"
       inkscape:stockid="Arrow2Send"
       inkscape:isstock="true"><path
         transform="matrix(-0.3,0,0,-0.3,0.69,0)"
         d="M 8.7185878,4.0337352 -2.2072895,0.01601326 8.7185884,-4.0017078 c -1.7454984,2.3720609 -1.7354408,5.6174519 -6e-7,8.035443 z"
         style="fill:#000000;fill-opacity:1;fill-rule:evenodd;stroke:#000000;stroke-width:0.625;stroke-linejoin:round;stroke-opacity:1"
         id="path914-04-06-1-8-4" /></marker><marker
       style="overflow:visible"
       id="Arrow2Sstart-1-48-65-9"
       refX="0"
       refY="0"
       orient="auto"
       inkscape:stockid="Arrow2Sstart"
       inkscape:isstock="true"
       viewBox="0 0 3.4652294 2.5981128"
       markerWidth="7.999824"
       markerHeight="5.9980001"
       preserveAspectRatio="xMidYMid"><path
         transform="matrix(0.3,0,0,0.3,-0.69,0)"
         d="M 8.7185878,4.0337352 -2.2072895,0.01601326 8.7185884,-4.0017078 c -1.7454984,2.3720609 -1.7354408,5.6174519 -6e-7,8.035443 z"
         style="fill:#000000;fill-opacity:1;fill-rule:evenodd;stroke:#000000;stroke-width:0.625;stroke-linejoin:round;stroke-opacity:1"
         id="path911-8-1-5-2" /></marker><marker
       style="overflow:visible"
       id="Arrow2Send-3-85-3-8"
       refX="0"
       refY="0"
       orient="auto"
       inkscape:stockid="Arrow2Send"
       inkscape:isstock="true"><path
         transform="matrix(-0.3,0,0,-0.3,0.69,0)"
         d="M 8.7185878,4.0337352 -2.2072895,0.01601326 8.7185884,-4.0017078 c -1.7454984,2.3720609 -1.7354408,5.6174519 -6e-7,8.035443 z"
         style="fill:#000000;fill-opacity:1;fill-rule:evenodd;stroke:#000000;stroke-width:0.625;stroke-linejoin:round;stroke-opacity:1"
         id="path914-04-06-5-7" /></marker><marker
       style="overflow:visible"
       id="Arrow2Sstart-1-7"
       refX="0"
       refY="0"
       orient="auto"
       inkscape:stockid="Arrow2Sstart"
       inkscape:isstock="true"><path
         transform="matrix(0.3,0,0,0.3,-0.69,0)"
         d="M 8.7185878,4.0337352 -2.2072895,0.01601326 8.7185884,-4.0017078 c -1.7454984,2.3720609 -1.7354408,5.6174519 -6e-7,8.035443 z"
         style="fill:#000000;fill-opacity:1;fill-rule:evenodd;stroke:#000000;stroke-width:0.625;stroke-linejoin:round;stroke-opacity:1"
         id="path911-8-5" /></marker><marker
       style="overflow:visible"
       id="Arrow2Send-3-6"
       refX="0"
       refY="0"
       orient="auto"
       inkscape:stockid="Arrow2Send"
       inkscape:isstock="true"><path
         transform="matrix(-0.3,0,0,-0.3,0.69,0)"
         d="M 8.7185878,4.0337352 -2.2072895,0.01601326 8.7185884,-4.0017078 c -1.7454984,2.3720609 -1.7354408,5.6174519 -6e-7,8.035443 z"
         style="fill:#000000;fill-opacity:1;fill-rule:evenodd;stroke:#000000;stroke-width:0.625;stroke-linejoin:round;stroke-opacity:1"
         id="path914-04-7" /></marker><rect
       x="27.970238"
       y="122.84226"
       width="45.735119"
       height="17.764881"
       id="rect837-7-7-93" /><rect
       x="27.970238"
       y="122.84226"
       width="45.735119"
       height="17.764881"
       id="rect5944" /><rect
       x="27.970238"
       y="122.84226"
       width="45.735119"
       height="17.764881"
       id="rect837-7-7-93-2" /><rect
       x="27.970238"
       y="122.84226"
       width="45.735119"
       height="17.764881"
       id="rect5980" /><marker
       style="overflow:visible"
       id="Arrow2Sstart-1-48-65-0"
       refX="0"
       refY="0"
       orient="auto"
       inkscape:stockid="Arrow2Sstart"
       inkscape:isstock="true"><path
         transform="matrix(0.3,0,0,0.3,-0.69,0)"
         d="M 8.7185878,4.0337352 -2.2072895,0.01601326 8.7185884,-4.0017078 c -1.7454984,2.3720609 -1.7354408,5.6174519 -6e-7,8.035443 z"
         style="fill:#000000;fill-opacity:1;fill-rule:evenodd;stroke:#000000;stroke-width:0.625;stroke-linejoin:round;stroke-opacity:1"
         id="path911-8-1-5-9" /></marker><marker
       style="overflow:visible"
       id="Arrow2Send-3-85-3-9"
       refX="0"
       refY="0"
       orient="auto"
       inkscape:stockid="Arrow2Send"
       inkscape:isstock="true"><path
         transform="matrix(-0.3,0,0,-0.3,0.69,0)"
         d="M 8.7185878,4.0337352 -2.2072895,0.01601326 8.7185884,-4.0017078 c -1.7454984,2.3720609 -1.7354408,5.6174519 -6e-7,8.035443 z"
         style="fill:#000000;fill-opacity:1;fill-rule:evenodd;stroke:#000000;stroke-width:0.625;stroke-linejoin:round;stroke-opacity:1"
         id="path914-04-06-5-1" /></marker><rect
       x="27.970238"
       y="122.84226"
       width="78.595192"
       height="14.178302"
       id="rect837-7-7-8-5-7-6" /><rect
       x="27.970238"
       y="122.84226"
       width="78.595192"
       height="14.178302"
       id="rect6457" /><rect
       x="27.970238"
       y="122.84226"
       width="78.595192"
       height="14.178302"
       id="rect837-7-7-8-5-2" /><rect
       x="27.970238"
       y="122.84226"
       width="78.595192"
       height="14.178302"
       id="rect6522" /><rect
       x="27.970238"
       y="122.84226"
       width="78.595192"
       height="14.178302"
       id="rect837-7-7-8-5-4" /><rect
       x="27.970238"
       y="122.84226"
       width="78.595192"
       height="14.178302"
       id="rect6675" /><marker
       style="overflow:visible"
       id="Arrow2Sstart-6-0"
       refX="0"
       refY="0"
       orient="auto"
       inkscape:stockid="Arrow2Sstart"
       inkscape:isstock="true"><path
         transform="matrix(0.3,0,0,0.3,-0.69,0)"
         d="M 8.7185878,4.0337352 -2.2072895,0.01601326 8.7185884,-4.0017078 c -1.7454984,2.3720609 -1.7354408,5.6174519 -6e-7,8.035443 z"
         style="fill:#d0a9a7;fill-opacity:1;fill-rule:evenodd;stroke:#d0a9a7;stroke-width:0.625;stroke-linejoin:round;stroke-opacity:1"
         id="path911-9-1" /></marker><marker
       style="overflow:visible"
       id="Arrow2Send-4-3"
       refX="0"
       refY="0"
       orient="auto"
       inkscape:stockid="Arrow2Send"
       inkscape:isstock="true"><path
         transform="matrix(-0.3,0,0,-0.3,0.69,0)"
         d="M 8.7185878,4.0337352 -2.2072895,0.01601326 8.7185884,-4.0017078 c -1.7454984,2.3720609 -1.7354408,5.6174519 -6e-7,8.035443 z"
         style="fill:#d0a9a7;fill-opacity:1;fill-rule:evenodd;stroke:#d0a9a7;stroke-width:0.625;stroke-linejoin:round;stroke-opacity:1"
         id="path914-0-7" /></marker><marker
       style="overflow:visible"
       id="Arrow2Sstart-6-0-3"
       refX="0"
       refY="0"
       orient="auto"
       inkscape:stockid="Arrow2Sstart"
       inkscape:isstock="true"
       viewBox="0 0 3.4652294 2.5981128"
       markerWidth="7.999824"
       markerHeight="5.9980001"
       preserveAspectRatio="xMidYMid"><path
         transform="matrix(0.3,0,0,0.3,-0.69,0)"
         d="M 8.7185878,4.0337352 -2.2072895,0.01601326 8.7185884,-4.0017078 c -1.7454984,2.3720609 -1.7354408,5.6174519 -6e-7,8.035443 z"
         style="fill:#a4cba7;fill-opacity:1;fill-rule:evenodd;stroke:#a4cba7;stroke-width:0.625;stroke-linejoin:round;stroke-opacity:1"
         id="path911-9-1-3" /></marker><marker
       style="overflow:visible"
       id="Arrow2Send-4-3-8"
       refX="0"
       refY="0"
       orient="auto"
       inkscape:stockid="Arrow2Send"
       inkscape:isstock="true"><path
         transform="matrix(-0.3,0,0,-0.3,0.69,0)"
         d="M 8.7185878,4.0337352 -2.2072895,0.01601326 8.7185884,-4.0017078 c -1.7454984,2.3720609 -1.7354408,5.6174519 -6e-7,8.035443 z"
         style="fill:#a4cba7;fill-opacity:1;fill-rule:evenodd;stroke:#a4cba7;stroke-width:0.625;stroke-linejoin:round;stroke-opacity:1"
         id="path914-0-7-4" /></marker><marker
       style="overflow:visible"
       id="Arrow2Sstart-6-0-3-2"
       refX="0"
       refY="0"
       orient="auto"
       inkscape:stockid="Arrow2Sstart"
       inkscape:isstock="true"><path
         transform="matrix(0.3,0,0,0.3,-0.69,0)"
         d="M 8.7185878,4.0337352 -2.2072895,0.01601326 8.7185884,-4.0017078 c -1.7454984,2.3720609 -1.7354408,5.6174519 -6e-7,8.035443 z"
         style="fill:#a4a0c9;fill-opacity:1;fill-rule:evenodd;stroke:#a4a0c9;stroke-width:0.625;stroke-linejoin:round;stroke-opacity:1"
         id="path911-9-1-3-1" /></marker><marker
       style="overflow:visible"
       id="Arrow2Send-4-3-8-7"
       refX="0"
       refY="0"
       orient="auto"
       inkscape:stockid="Arrow2Send"
       inkscape:isstock="true"><path
         transform="matrix(-0.3,0,0,-0.3,0.69,0)"
         d="M 8.7185878,4.0337352 -2.2072895,0.01601326 8.7185884,-4.0017078 c -1.7454984,2.3720609 -1.7354408,5.6174519 -6e-7,8.035443 z"
         style="fill:#a4a0c9;fill-opacity:1;fill-rule:evenodd;stroke:#a4a0c9;stroke-width:0.625;stroke-linejoin:round;stroke-opacity:1"
         id="path914-0-7-4-7" /></marker><rect
       x="27.970238"
       y="122.84226"
       width="105.56988"
       height="30.317909"
       id="rect837-7-7-87" /><rect
       x="27.970238"
       y="122.84226"
       width="45.735119"
       height="17.764881"
       id="rect8740" /><rect
       x="27.970238"
       y="122.84226"
       width="105.56988"
       height="30.317909"
       id="rect837-7-7-87-9" /><rect
       x="27.970238"
       y="122.84226"
       width="105.56988"
       height="30.317909"
       id="rect8776" /><rect
       x="27.970238"
       y="122.84226"
       width="105.56988"
       height="30.317909"
       id="rect837-7-7-87-9-9" /><rect
       x="27.970238"
       y="122.84226"
       width="105.56988"
       height="30.317909"
       id="rect8816" /><rect
       x="27.970238"
       y="122.84226"
       width="105.56988"
       height="30.317909"
       id="rect837-7-7-87-9-7" /><rect
       x="27.970238"
       y="122.84226"
       width="105.56988"
       height="30.317909"
       id="rect8857" /><rect
       x="27.970238"
       y="122.84226"
       width="105.56988"
       height="30.317909"
       id="rect837-7-7-87-9-9-8" /><rect
       x="27.970238"
       y="122.84226"
       width="105.56988"
       height="30.317909"
       id="rect8860" /><rect
       x="27.970238"
       y="122.84226"
       width="105.56988"
       height="30.317909"
       id="rect837-7-7-87-9-70" /><rect
       x="27.970238"
       y="122.84226"
       width="105.56988"
       height="30.317909"
       id="rect8857-3" /><rect
       x="27.970238"
       y="122.84226"
       width="105.56988"
       height="30.317909"
       id="rect837-7-7-87-9-9-1" /><rect
       x="27.970238"
       y="122.84226"
       width="105.56988"
       height="30.317909"
       id="rect8860-4" /><rect
       x="27.970238"
       y="122.84226"
       width="144.31534"
       height="18.213203"
       id="rect837-7-7-937" /><rect
       x="27.970238"
       y="122.84226"
       width="144.31534"
       height="18.213203"
       id="rect837-7-7-937-6" /><rect
       x="27.970238"
       y="122.84226"
       width="236.14979"
       height="46.351115"
       id="rect837-7-7-937-0" /><rect
       x="27.970238"
       y="122.84226"
       width="69.885094"
       height="24.377951"
       id="rect837-7-7-9-8-1" /><rect
       x="27.970238"
       y="122.84226"
       width="244.71064"
       height="127.0625"
       id="rect837-7-7-937-0-6" /><marker
       style="overflow:visible"
       id="Arrow2Sstart-1-48-65-9-3"
       refX="0"
       refY="0"
       orient="auto"
       inkscape:stockid="Arrow2Sstart"
       inkscape:isstock="true"
       viewBox="0 0 3.4652294 2.5981128"
       markerWidth="7.999824"
       markerHeight="5.9980001"
       preserveAspectRatio="xMidYMid"><path
         transform="matrix(0.3,0,0,0.3,-0.69,0)"
         d="M 8.7185878,4.0337352 -2.2072895,0.01601326 8.7185884,-4.0017078 c -1.7454984,2.3720609 -1.7354408,5.6174519 -6e-7,8.035443 z"
         style="fill:#000000;fill-opacity:1;fill-rule:evenodd;stroke:#000000;stroke-width:0.625;stroke-linejoin:round;stroke-opacity:1"
         id="path911-8-1-5-2-7" /></marker><rect
       x="27.970238"
       y="122.84226"
       width="156.70303"
       height="23.697743"
       id="rect837-7-7-9-8-5" /><rect
       x="27.970238"
       y="122.84226"
       width="69.885094"
       height="24.377951"
       id="rect837-7-7-9-8-1-6" /><marker
       style="overflow:visible"
       id="Arrow2Sstart-1-48-65-9-2"
       refX="0"
       refY="0"
       orient="auto"
       inkscape:stockid="Arrow2Sstart"
       inkscape:isstock="true"
       viewBox="0 0 3.4652294 2.5981128"
       markerWidth="7.999824"
       markerHeight="5.9980001"
       preserveAspectRatio="xMidYMid"><path
         transform="matrix(0.3,0,0,0.3,-0.69,0)"
         d="M 8.7185878,4.0337352 -2.2072895,0.01601326 8.7185884,-4.0017078 c -1.7454984,2.3720609 -1.7354408,5.6174519 -6e-7,8.035443 z"
         style="fill:#000000;fill-opacity:1;fill-rule:evenodd;stroke:#000000;stroke-width:0.625;stroke-linejoin:round;stroke-opacity:1"
         id="path911-8-1-5-2-75" /></marker><rect
       x="27.970238"
       y="122.84226"
       width="69.885094"
       height="24.377951"
       id="rect837-7-7-9-8-1-6-5" /><marker
       style="overflow:visible"
       id="Arrow2Sstart-1-48-65-9-2-3"
       refX="0"
       refY="0"
       orient="auto"
       inkscape:stockid="Arrow2Sstart"
       inkscape:isstock="true"
       viewBox="0 0 3.4652294 2.5981128"
       markerWidth="7.999824"
       markerHeight="5.9980001"
       preserveAspectRatio="xMidYMid"><path
         transform="matrix(0.3,0,0,0.3,-0.69,0)"
         d="M 8.7185878,4.0337352 -2.2072895,0.01601326 8.7185884,-4.0017078 c -1.7454984,2.3720609 -1.7354408,5.6174519 -6e-7,8.035443 z"
         style="fill:#000000;fill-opacity:1;fill-rule:evenodd;stroke:#000000;stroke-width:0.625;stroke-linejoin:round;stroke-opacity:1"
         id="path911-8-1-5-2-75-0" /></marker><rect
       x="27.970238"
       y="122.84226"
       width="144.31534"
       height="18.213203"
       id="rect837-7-7-937-68" /><marker
       style="overflow:visible"
       id="Arrow2Sstart-8"
       refX="0"
       refY="0"
       orient="auto"
       inkscape:stockid="Arrow2Sstart"
       inkscape:isstock="true"
       viewBox="0 0 3.4652294 2.5981128"
       markerWidth="8"
       markerHeight="5.9981318"
       preserveAspectRatio="xMidYMid"><path
         transform="matrix(0.3,0,0,0.3,-0.69,0)"
         d="M 8.7185878,4.0337352 -2.2072895,0.01601326 8.7185884,-4.0017078 c -1.7454984,2.3720609 -1.7354408,5.6174519 -6e-7,8.035443 z"
         style="fill:#8c8e8c;fill-opacity:1;fill-rule:evenodd;stroke:#8c8e8c;stroke-width:0.625;stroke-linejoin:round;stroke-opacity:1"
         id="path911-3" /></marker></defs><sodipodi:namedview
     id="base"
     pagecolor="#000000"
     bordercolor="#666666"
     borderopacity="1.0"
     inkscape:pageopacity="0"
     inkscape:pageshadow="2"
     inkscape:zoom="0.49497475"
     inkscape:cx="1174.8074"
     inkscape:cy="468.71078"
     inkscape:document-units="mm"
     inkscape:current-layer="layer1"
     inkscape:document-rotation="0"
     showgrid="false"
     inkscape:window-width="1920"
     inkscape:window-height="1009"
     inkscape:window-x="-8"
     inkscape:window-y="-8"
     inkscape:window-maximized="1"
     inkscape:showpageshadow="2"
     inkscape:pagecheckerboard="0"
     inkscape:deskcolor="#d1d1d1" /><metadata
     id="metadata5"><rdf:RDF><cc:Work
         rdf:about=""><dc:format>image/svg+xml</dc:format><dc:type
           rdf:resource="http://purl.org/dc/dcmitype/StillImage" /></cc:Work></rdf:RDF></metadata><g
     inkscape:label="图层 1"
     inkscape:groupmode="layer"
     id="layer1"><text
       xml:space="preserve"
       id="text835-3-1"
       style="font-style:normal;font-weight:normal;font-size:10.5833px;line-height:125%;font-family:sans-serif;letter-spacing:0px;word-spacing:0px;white-space:pre;shape-inside:url(#rect837-7-7);display:inline;fill:#fcfcfc;fill-opacity:1;stroke:none;stroke-width:0.264583px;stroke-linecap:butt;stroke-linejoin:miter;stroke-opacity:1"
       transform="matrix(1.0898977,0,0,1.1923094,106.1611,-0.5958051)"><tspan
         x="27.970703"
         y="132.49726"
         id="tspan6711">tdsAPI</tspan></text><text
       xml:space="preserve"
       id="text835-3-1-2"
       style="font-style:normal;font-weight:normal;font-size:10.5833px;line-height:125%;font-family:sans-serif;letter-spacing:0px;word-spacing:0px;white-space:pre;shape-inside:url(#rect837-7-7-937);display:inline;fill:#fcfcfc;fill-opacity:1;stroke:none;stroke-width:0.264583px;stroke-linecap:butt;stroke-linejoin:miter;stroke-opacity:1"
       transform="matrix(0.68684037,0,0,0.72189023,111.10804,91.286627)"><tspan
         x="27.970703"
         y="132.49726"
         id="tspan6713">getMp(http)</tspan></text><text
       xml:space="preserve"
       id="text835-3-1-2-8"
       style="font-style:normal;font-weight:normal;font-size:10.5833px;line-height:125%;font-family:sans-serif;letter-spacing:0px;word-spacing:0px;white-space:pre;shape-inside:url(#rect837-7-7-937-0);display:inline;fill:#fcfcfc;fill-opacity:1;stroke:none;stroke-width:0.264583px;stroke-linecap:butt;stroke-linejoin:miter;stroke-opacity:1"
       transform="matrix(0.68684037,0,0,0.72189023,323.55485,-45.961202)"><tspan
         x="27.970703"
         y="132.49726"
         id="tspan6715">元素增加一个&lt;desc&gt;标签，作为配置信息
</tspan><tspan
         x="27.970703"
         y="145.99293"
         id="tspan6717">可以使用inkscape元素属性编辑</tspan></text><text
       xml:space="preserve"
       id="text835-3-1-2-8-9"
       style="font-style:normal;font-weight:normal;font-size:10.5833px;line-height:125%;font-family:sans-serif;letter-spacing:0px;word-spacing:0px;white-space:pre;shape-inside:url(#rect837-7-7-937-0-6);display:inline;fill:#fcfcfc;fill-opacity:1;stroke:none;stroke-width:0.264583px;stroke-linecap:butt;stroke-linejoin:miter;stroke-opacity:1"
       transform="matrix(0.68684037,0,0,0.72189023,417.21784,0.80790559)"><tspan
         x="27.970703"
         y="132.49726"
         id="tspan6719">解析包含所有拓扑配置信息的元素
</tspan><tspan
         x="27.970703"
         y="145.99293"
         id="tspan6721">1. 作为 tElem 保存于全局对象列表中。
</tspan><tspan
         x="27.970703"
         y="159.48859"
         id="tspan6723">tElem.tsvgDom为dom引用
</tspan><tspan
         x="27.970703"
         y="172.98426"
         id="tspan6725">tElem.conf为&lt;desc&gt;标签中的拓扑配置参数</tspan></text><text
       xml:space="preserve"
       id="text835-3-1-2-0"
       style="font-style:normal;font-weight:normal;font-size:10.5833px;line-height:125%;font-family:sans-serif;letter-spacing:0px;word-spacing:0px;white-space:pre;shape-inside:url(#rect837-7-7-937-6);display:inline;fill:#fcfcfc;fill-opacity:1;stroke:none;stroke-width:0.264583px;stroke-linecap:butt;stroke-linejoin:miter;stroke-opacity:1"
       transform="matrix(0.68684037,0,0,0.72189023,111.34285,103.70974)"><tspan
         x="27.970703"
         y="132.49726"
         id="tspan6727">onDataUpdate(ws)</tspan></text><rect
       style="fill:#aecea8;fill-opacity:1;stroke:none;stroke-width:2.20706;stroke-linejoin:round"
       id="rect833-3-9"
       width="80.888939"
       height="25.088079"
       x="23.156706"
       y="158.65219" /><rect
       style="fill:#aecea8;fill-opacity:1;stroke:none;stroke-width:3.26575;stroke-linejoin:round"
       id="rect833-3-9-9"
       width="89.441566"
       height="49.676876"
       x="204.37442"
       y="143.00682" /><text
       xml:space="preserve"
       id="text835-3-1-6"
       style="font-style:normal;font-weight:normal;font-size:10.5833px;line-height:125%;font-family:sans-serif;letter-spacing:0px;word-spacing:0px;white-space:pre;shape-inside:url(#rect837-7-7-9);display:inline;fill:#000000;fill-opacity:1;stroke:none;stroke-width:0.264583px;stroke-linecap:butt;stroke-linejoin:miter;stroke-opacity:1"
       transform="matrix(1.0898977,0,0,1.1923094,-0.44029365,16.628821)"><tspan
         x="27.970703"
         y="132.49726"
         id="tspan6729">DataServer</tspan></text><rect
       style="fill:#aeacc9;fill-opacity:1;stroke:none;stroke-width:1.39956;stroke-linejoin:round"
       id="rect833-3-9-5"
       width="49.351135"
       height="16.535454"
       x="374.9895"
       y="102.27435" /><rect
       style="fill:#aeacc9;fill-opacity:1;stroke:none;stroke-width:2.20706;stroke-linejoin:round"
       id="rect833-3-9-5-1"
       width="80.888939"
       height="25.088079"
       x="360.99435"
       y="160.64661" /><text
       xml:space="preserve"
       id="text835-3-1-6-5"
       style="font-style:normal;font-weight:normal;font-size:10.5833px;line-height:125%;font-family:sans-serif;letter-spacing:0px;word-spacing:0px;white-space:pre;shape-inside:url(#rect837-7-7-9-8);display:inline;fill:#000000;fill-opacity:1;stroke:none;stroke-width:0.264583px;stroke-linecap:butt;stroke-linejoin:miter;stroke-opacity:1"
       transform="matrix(0.66495727,0,0,0.78584644,359.8798,8.7874136)"><tspan
         x="27.970703"
         y="132.49726"
         id="tspan6731">t-svg Parser</tspan></text><rect
       style="fill:#aeacc9;fill-opacity:1;stroke:none;stroke-width:1.43696;stroke-linejoin:round"
       id="rect833-3-9-5-3"
       width="52.02383"
       height="16.535454"
       x="300.85873"
       y="187.37357" /><text
       xml:space="preserve"
       id="text835-3-1-6-5-1"
       style="font-style:normal;font-weight:normal;font-size:10.5833px;line-height:125%;font-family:sans-serif;letter-spacing:0px;word-spacing:0px;white-space:pre;shape-inside:url(#rect837-7-7-9-8-5);display:inline;fill:#000000;fill-opacity:1;stroke:none;stroke-width:0.264583px;stroke-linecap:butt;stroke-linejoin:miter;stroke-opacity:1"
       transform="matrix(0.66495727,0,0,0.78584644,285.74902,93.886617)"><tspan
         x="27.970703"
         y="132.49726"
         id="tspan6733">t-svg Render</tspan></text><text
       xml:space="preserve"
       id="text835-3-1-6-5-5"
       style="font-style:normal;font-weight:normal;font-size:10.5833px;line-height:125%;font-family:sans-serif;letter-spacing:0px;word-spacing:0px;white-space:pre;shape-inside:url(#rect837-7-7-9-8-1);display:inline;fill:#000000;fill-opacity:1;stroke:none;stroke-width:0.264583px;stroke-linecap:butt;stroke-linejoin:miter;stroke-opacity:1"
       transform="matrix(1.0898977,0,0,1.1923094,343.79309,19.566031)"><tspan
         x="27.970703"
         y="132.49726"
         id="tspan6735">html dom</tspan></text><text
       xml:space="preserve"
       id="text835-3-1-6-5-5-2"
       style="font-style:normal;font-weight:normal;font-size:10.5833px;line-height:125%;font-family:sans-serif;letter-spacing:0px;word-spacing:0px;white-space:pre;shape-inside:url(#rect837-7-7-9-8-1-6);display:inline;fill:#000000;fill-opacity:1;stroke:none;stroke-width:0.264583px;stroke-linecap:butt;stroke-linejoin:miter;stroke-opacity:1"
       transform="matrix(1.0898977,0,0,1.1923094,182.18931,4.4093647)"><tspan
         x="27.970703"
         y="132.49726"
         id="tspan6737">tElemList</tspan></text><text
       xml:space="preserve"
       id="text835-3-1-6-5-5-2-4"
       style="font-style:normal;font-weight:normal;font-size:10.5833px;line-height:125%;font-family:sans-serif;letter-spacing:0px;word-spacing:0px;white-space:pre;shape-inside:url(#rect837-7-7-9-8-1-6-5);display:inline;fill:#000000;fill-opacity:1;stroke:none;stroke-width:0.264583px;stroke-linecap:butt;stroke-linejoin:miter;stroke-opacity:1"
       transform="matrix(1.0898977,0,0,1.1923094,181.77973,25.26871)"><tspan
         x="27.970703"
         y="132.49726"
         id="tspan6739">dataBuff</tspan></text><path
       style="fill:none;stroke:#a4cba7;stroke-width:3.83308;stroke-linecap:butt;stroke-linejoin:miter;stroke-miterlimit:4;stroke-dasharray:none;stroke-opacity:1;marker-start:;marker-end:url(#Arrow2Send-4-3-8)"
       d="m 118.6028,171.74243 70.15435,-0.31081"
       id="path879-7-5-4" /><path
       d="m 314.18413,35.548199 c -2.57836,0 -4.66379,2.09926 -4.66379,4.688874 v 8.20206 h -3.50261 c -0.64156,0 -1.16603,0.526608 -1.16603,1.171115 v 7.03095 c 0,0.644352 0.52432,1.170961 1.16603,1.170961 h 3.50261 v 3.513186 c 0,2.589614 2.08543,4.688874 4.66379,4.688874 h 14.00076 c 2.57835,0 4.66849,-2.09926 4.66849,-4.688874 V 44.92107 c 0,-1.242099 -1.15496,-2.437585 -3.18502,-4.441336 l -0.86254,-0.866454 -0.86269,-0.866149 c -1.99473,-2.038939 -3.18396,-3.198932 -4.42203,-3.198932 h -9.33682 z m 0,2.342071 h 8.50766 c 0.83993,0.210978 0.82931,1.253682 0.82931,2.284951 v 3.575038 c 0,0.644358 0.52432,1.17096 1.16603,1.17096 h 3.49776 c 1.16678,0 2.3366,-5.75e-4 2.3366,1.171116 v 15.23301 c 0,1.288866 -1.05319,2.346798 -2.3366,2.346798 h -14.00061 c -1.28341,0 -2.33189,-1.057932 -2.33189,-2.346798 v -3.513186 h 11.66886 c 0.64171,0 1.16603,-0.526453 1.16603,-1.170961 v -7.03095 c 0,-0.644507 -0.52432,-1.171115 -1.16603,-1.171115 h -11.66902 v -8.20206 c 0,-1.288866 1.04849,-2.346803 2.3319,-2.346803 z m -3.41253,12.695805 c 0.51188,0 0.96688,0.0952 1.36501,0.285617 l -0.2275,0.542602 c -0.39813,-0.171374 -0.7773,-0.25698 -1.13751,-0.25698 -0.30333,0 -0.53084,0.06657 -0.6825,0.199855 -0.15167,0.133289 -0.2275,0.314254 -0.2275,0.542752 0,0.266578 0.0569,0.466433 0.17062,0.599721 0.13271,0.114249 0.44545,0.285623 0.93837,0.514115 0.51188,0.209459 0.84373,0.428509 0.9954,0.657001 0.17062,0.209453 0.25586,0.47603 0.25586,0.799732 0,0.437951 -0.15167,0.79014 -0.455,1.056717 -0.30334,0.266577 -0.73938,0.399866 -1.30814,0.399866 -0.54979,0 -0.98584,-0.07616 -1.30813,-0.228498 v -0.628358 c 0.455,0.190413 0.89105,0.285617 1.30813,0.285617 0.37917,0 0.65415,-0.06657 0.82477,-0.199856 0.18958,-0.133288 0.28438,-0.342741 0.28438,-0.628364 0,-0.228492 -0.0664,-0.418905 -0.19914,-0.571239 -0.0948,-0.0952 -0.44545,-0.276169 -1.05212,-0.542752 -0.39813,-0.190407 -0.68251,-0.399866 -0.85314,-0.628358 -0.17062,-0.228498 -0.25601,-0.523557 -0.25601,-0.885344 0,-0.399866 0.13271,-0.714125 0.39813,-0.942618 0.28437,-0.247537 0.6731,-0.371228 1.16602,-0.371228 z m 8.75882,0 c 0.53083,0 1.0048,0.0952 1.42188,0.285617 l -0.25601,0.599726 c -0.41709,-0.209458 -0.82462,-0.314104 -1.22275,-0.314104 -0.54979,0 -0.98584,0.180816 -1.30813,0.542597 -0.3223,0.361786 -0.48352,0.885493 -0.48352,1.570981 0,0.685483 0.14227,1.209046 0.42664,1.570827 0.30334,0.342747 0.75834,0.514115 1.36501,0.514115 0.28438,0 0.58771,-0.03806 0.91001,-0.11425 v -1.542338 h -1.05227 v -0.599727 h 1.70626 v 2.570574 c -0.53083,0.171368 -1.10899,0.25698 -1.73462,0.25698 -0.70147,0 -1.26082,-0.228498 -1.6779,-0.685489 -0.41709,-0.45699 -0.62563,-1.123433 -0.62563,-1.999329 0,-0.837816 0.2181,-1.48522 0.65414,-1.94221 0.455,-0.47603 1.08063,-0.71397 1.87689,-0.71397 z m -6.96732,0.05711 h 0.71102 l 1.05212,3.313181 c 0.0948,0.323702 0.19914,0.723568 0.31289,1.199598 0.0569,-0.342742 0.16107,-0.752205 0.31274,-1.228241 l 1.05227,-3.284538 h 0.68251 l -1.73493,5.226749 h -0.65369 l -1.73508,-5.226749 z"
       p-id="4252"
       fill="#1296db"
       id="path9074"
       style="stroke-width:0.0296872" /><path
       style="fill:#fcfcfc;fill-opacity:1;stroke:#ffffff;stroke-width:0.799885;stroke-dasharray:none;stroke-opacity:1;marker-start:url(#Arrow2Sstart)"
       d="M 264.1728,136.62371 307.09695,76.533576"
       id="path13185"
       sodipodi:nodetypes="cc" /><path
       style="fill:#fcfcfc;fill-opacity:1;stroke:#ffffff;stroke-width:0.949928;stroke-dasharray:none;stroke-opacity:1;marker-start:url(#Arrow2Sstart)"
       d="M 385.06883,147.35081 329.34207,79.339248"
       id="path13185-8"
       sodipodi:nodetypes="cc" /><path
       style="fill:#fcfcfc;fill-opacity:1;stroke:#ffffff;stroke-width:0.807075;stroke-dasharray:none;stroke-opacity:1;marker-start:url(#Arrow2Sstart-8)"
       d="m 348.7258,176.13106 -44.75771,0.68089"
       id="path13185-8-8"
       sodipodi:nodetypes="cc" /><text
       xml:space="preserve"
       transform="scale(0.26458333)"
       id="text29654"
       style="white-space:pre;shape-inside:url(#rect29656);display:inline;fill:#000000;fill-opacity:1;stroke:#000000;stroke-width:3.64724;stroke-dasharray:none;stroke-opacity:1" /><text
       xml:space="preserve"
       id="text835-3-1-2-6"
       style="font-style:normal;font-weight:normal;font-size:10.5833px;line-height:125%;font-family:sans-serif;letter-spacing:0px;word-spacing:0px;white-space:pre;shape-inside:url(#rect837-7-7-937-68);display:inline;fill:#fcfcfc;fill-opacity:1;stroke:none;stroke-width:0.264583px;stroke-linecap:butt;stroke-linejoin:miter;stroke-opacity:1"
       transform="matrix(0.68684037,0,0,0.72189023,285.06805,68.430159)"><tspan
         x="27.970703"
         y="132.49726"
         id="tspan6741">数据驱动视图</tspan></text></g></svg>
